<?xml version="1.0" standalone="no"?>
<!DOCTYPE svg PUBLIC "-//W3C//DTD SVG 1.1//EN" "http://www.w3.org/Graphics/SVG/1.1/DTD/svg11.dtd" >
<svg xmlns="http://www.w3.org/2000/svg">
<metadata>Generated by IcoMoon</metadata>
<defs>
<font id="aecrm" horiz-adv-x="1024">
<font-face units-per-em="1024" ascent="960" descent="-64" />
<missing-glyph horiz-adv-x="1024" />
<glyph unicode="&#x20;" horiz-adv-x="512" d="" />
<glyph unicode="&#xe601;" glyph-name="email" d="M1024 835v-762.2c0-33.1-26.9-60-60-60h-904c-33.1 0-60 26.9-60 60v762.2l469.7-465.8c23.4-23.2 61.1-23.2 84.5 0l469.8 465.8zM975.4 883.2h-926.8l421.1-417.6c23.4-23.2 61.1-23.2 84.5 0l421.2 417.6z" />
<glyph unicode="&#xe60b;" glyph-name="uniE60B" horiz-adv-x="1050" d="M512 960c-282.864 0-512-229.136-512-512s229.136-512 512-512c282.864 0 512 229.136 512 512s-229.136 512-512 512zM478.815 384.79v0c-3.16 3.16-7.901 6.321-14.222 11.062-12.642 12.642-18.963 28.444-18.963 47.407 0 1.58 0 3.16 1.58 6.321s1.58 6.321 1.58 6.321v0l64.79 320.79 64.79-320.79 202.272-213.333-301.827 142.222z" />
<glyph unicode="&#xe60e;" glyph-name="uniE60E" d="M982.9 647.1c-26.9 63.2-63.2 116.9-109 162.8-45.9 45.8-99.6 82.1-162.8 109s-129.6 41.1-199.1 41.1-135.9-12.6-199.1-41.1c-63.2-26.9-116.9-63.2-162.8-109-45.8-45.9-82.1-99.6-109-162.8s-41.1-129.6-41.1-199.1 14.2-135.9 41.1-199.1 63.2-116.9 109-162.8c45.8-45.8 99.6-82.2 162.8-109s129.6-41.1 199.1-41.1 135.9 14.2 199.1 41.1c63.2 26.9 116.9 63.2 162.8 109s82.2 99.6 109 162.8 41.1 129.6 41.1 199.1-14.2 135.9-41.1 199.1zM747.8 391.1c0-19.8-7.1-36.8-21.4-51.1-14.2-14.2-31.3-21.4-51.1-21.4h-72.4l-181-181v181.1h-72.4c-19.8 0-36.8 7.1-51.1 21.4-14.2 14.2-21.4 31.3-21.4 51.1v253.4c0 19.8 7.1 36.8 21.4 51.1 14.2 14.2 31.3 21.4 51.1 21.4h325.9c19.8 0 36.8-7.1 51.1-21.4 14.2-14.2 21.4-31.3 21.4-51.1v-253.5z" />
<glyph unicode="&#xe60f;" glyph-name="uniE60F" d="M896 704v128h-896v-704c0-35.346 28.654-64 64-64h864c53.022 0 96 42.978 96 96v544h-128zM832 128h-768v640h768v-640zM128 640h640v-64h-640zM512 512h256v-64h-256zM512 384h256v-64h-256zM512 256h192v-64h-192zM128 512h320v-320h-320z" />
<glyph unicode="&#xe610;" glyph-name="uniE610" d="M982.9 647.1c-26.9 63.2-63.2 116.9-109 162.8-45.9 45.8-99.6 82.1-162.8 109s-129.6 41.1-199.1 41.1-135.9-12.6-199.1-41.1c-63.2-26.9-116.9-63.2-162.8-109-45.8-45.9-82.1-99.6-109-162.8s-41.1-129.6-41.1-199.1 14.2-135.9 41.1-199.1 63.2-116.9 109-162.8c45.8-45.8 99.6-82.2 162.8-109s129.6-41.1 199.1-41.1 135.9 14.2 199.1 41.1c63.2 26.9 116.9 63.2 162.8 109s82.2 99.6 109 162.8 41.1 129.6 41.1 199.1-14.2 135.9-41.1 199.1zM400.2 663.9c0.8 14.3 4.1 28.2 9.9 41.4 5.8 13.3 12.9 24.9 21.3 35s19.5 18.1 33.2 24.1c13.7 6 28.8 9 45.4 9 27.6 0 50.5-7.9 68.8-23.7 18.2-15.8 30.4-35.1 36.6-57.9s7.4-46.6 3.6-71.6c-0.3-1.9-0.7-4.5-1.2-7.8-0.5-3.4-1.9-9.8-4.2-19.3s-5-18.6-8.2-27.3c-3.2-8.7-7.7-18.4-13.5-29.2-5.8-10.7-12.2-19.9-19.3-27.5s-16-14.1-26.7-19.3-22.3-7.8-34.6-7.8c-12.3 0-23.9 2.5-34.8 7.6s-19.9 11.7-27.1 19.9c-7.2 8.2-13.8 17.2-19.7 26.9-5.9 9.8-10.5 19.6-13.9 29.4s-6.2 18.8-8.4 26.9c-2.3 8.2-3.8 14.8-4.6 19.9l-1.2 7.6c-1.8 14.9-2.2 29.4-1.4 43.7zM802.4 169.5c-4-1.3-9.6-3-16.7-5s-21.7-5.6-43.8-10.9c-22.1-5.2-44.2-9.9-66.2-13.9s-48.1-7.6-78.4-10.9c-30.3-3.2-59-4.8-86.1-4.8-43.4 0-89.4 3.8-137.9 11.5-48.5 7.6-86.2 15.2-113 22.7l-40.3 11.3v100.1c0 30 7.8 58.8 23.3 86.5 15.5 27.6 37.3 50.1 65.4 67.6s58.4 26.1 91.1 26.1l111.4-71.2 109.4 73.2c31.1 0 60.8-9 89.1-26.9 28.3-18 50.8-41 67.6-69.2s25.1-56.8 25.1-86.1v-100.1z" />
<glyph unicode="&#xe615;" glyph-name="uniE615" d="M512 960c69.531 0 135.901-14.222 199.111-41.086s116.938-63.21 162.765-109.037c45.827-45.827 82.173-99.556 109.037-162.765s41.086-129.58 41.086-199.111-14.222-135.901-41.086-199.111-63.21-116.938-109.037-162.765-99.556-82.173-162.765-109.037c-63.21-26.864-129.58-41.086-199.111-41.086s-135.901 14.222-199.111 41.086-116.938 63.21-162.765 109.037c-45.827 45.827-82.173 99.556-109.037 162.765s-41.086 129.58-41.086 199.111 14.222 135.901 41.086 199.111c26.864 63.21 63.21 116.938 109.037 162.765s99.556 82.173 162.765 109.037c63.21 28.444 129.58 41.086 199.111 41.086zM584.691 361.086l22.123 412.444h-189.63l22.123-412.444h145.383zM578.37 146.173c15.802 14.222 23.704 34.765 23.704 61.63s-7.901 47.407-23.704 61.63c-15.802 14.222-37.926 22.123-67.951 22.123s-52.148-7.901-67.951-22.123c-15.802-14.222-23.704-34.765-23.704-61.63 0-25.284 7.901-45.827 23.704-61.63 15.802-14.222 39.506-22.123 67.951-22.123 30.025 0 52.148 6.321 67.951 22.123z" />
<glyph unicode="&#xe616;" glyph-name="uniE616" d="M982.9 647.1c-26.9 63.2-63.2 116.9-109 162.8-45.9 45.8-99.6 82.1-162.8 109s-129.6 41.1-199.1 41.1-135.9-12.6-199.1-41.1c-63.2-26.9-116.9-63.2-162.8-109-45.8-45.9-82.1-99.6-109-162.8s-41.1-129.6-41.1-199.1 14.2-135.9 41.1-199.1 63.2-116.9 109-162.8c45.8-45.8 99.6-82.2 162.8-109s129.6-41.1 199.1-41.1 135.9 14.2 199.1 41.1c63.2 26.9 116.9 63.2 162.8 109s82.2 99.6 109 162.8 41.1 129.6 41.1 199.1-14.2 135.9-41.1 199.1zM672.3 405.4l36.8-217.8-197.1 98.5-197.1-98.5 37.1 217.8-135.6 151.7 197.1 24.6 98.5 197.1 98.5-197.1 197.1-24.6-135.3-151.7z" />
<glyph unicode="&#xe617;" glyph-name="uniE617" d="M982.9 647.1c-26.9 63.2-63.2 116.9-109 162.8-45.9 45.8-99.6 82.1-162.8 109s-129.6 41.1-199.1 41.1-135.9-12.6-199.1-41.1c-63.2-26.9-116.9-63.2-162.8-109-45.8-45.9-82.1-99.6-109-162.8s-41.1-129.6-41.1-199.1 14.2-135.9 41.1-199.1 63.2-116.9 109-162.8c45.8-45.8 99.6-82.2 162.8-109s129.6-41.1 199.1-41.1 135.9 14.2 199.1 41.1c63.2 26.9 116.9 63.2 162.8 109s82.2 99.6 109 162.8 41.1 129.6 41.1 199.1-14.2 135.9-41.1 199.1zM354.2 211.1h-63.2v473.5h63.1v-473.5zM733 400.5c-17.5-7.4-38.6-11.5-63.5-12.3-24.8-0.8-49 0.5-72.4 4.1s-48.6 7-75.4 10.3c-26.8 3.3-51 5.3-72.4 6.2-21.5 0.8-42.6-1.9-63.5-8.2v252.5c17.5 5.9 37.4 8.9 59.7 9s44.9-1.4 67.7-4.4c22.8-3.1 46-6.1 69.6-9.2s48.7-4.5 75.4-4.3c26.7 0.2 51.7 3.2 74.8 8.8v-252.5z" />
<glyph unicode="&#xe618;" glyph-name="uniE618" d="M614.7 628.6c-31.4 18.3-65.6 27.4-102.7 27.4s-71.3-9.1-102.7-27.4c-31.4-18.3-56.2-43.1-74.5-74.5s-27.4-65.6-27.4-102.7c0-37.1 9.1-71.3 27.4-102.7s43.1-56.2 74.5-74.5 65.6-27.4 102.7-27.4c37.1 0 71.3 9.1 102.7 27.4s56.2 43.1 74.5 74.5 27.4 65.6 27.4 102.7c0 37.1-9.1 71.3-27.4 102.7s-43.1 56.3-74.5 74.5zM623.6 404.3c-6.4-15-15-27.7-25.8-38.6-10.9-10.9-23.6-19.5-38.6-25.8-15-6.4-30.7-9.7-47.2-9.7s-32.2 3.4-47.2 9.7c-15 6.4-27.7 15-38.6 25.8s-19.5 23.6-25.8 38.6c-6.4 15-9.7 30.7-9.7 47.2s3.4 32.2 9.7 47.2c6.4 15 15 27.7 25.8 38.6 10.9 10.9 23.6 19.5 38.6 25.8 15 6.7 30.7 9.7 47.2 9.7v0c16.5 0 32.2-3.4 47.2-9.7 15-6.4 27.7-15 38.6-25.8 10.9-10.9 19.5-23.6 25.8-38.6 6.4-15 9.7-30.7 9.7-47.2s-3.3-32.3-9.7-47.2zM982.9 647.1c-26.9 63.2-63.2 116.9-109 162.8-45.9 45.8-99.6 82.1-162.8 109s-129.6 41.1-199.1 41.1-135.9-12.6-199.1-41.1c-63.2-26.9-116.9-63.2-162.8-109-45.8-45.9-82.1-99.6-109-162.8s-41.1-129.6-41.1-199.1 14.2-135.9 41.1-199.1 63.2-116.9 109-162.8c45.8-45.8 99.6-82.2 162.8-109s129.6-41.1 199.1-41.1 135.9 14.2 199.1 41.1c63.2 26.9 116.9 63.2 162.8 109s82.2 99.6 109 162.8 41.1 129.6 41.1 199.1-14.2 135.9-41.1 199.1zM813.4 324.2c-17.3-40.4-40.6-75.2-69.8-104.4s-64-52.5-104.4-69.8c-40.4-17.3-82.8-26-127.3-26s-86.9 8.7-127.3 26c-40.4 17.3-75.2 40.6-104.4 69.8s-52.5 64-69.8 104.4c-17.3 40.4-26 82.8-26 127.3s8.7 86.9 26 127.3c17.3 40.4 40.6 75.2 69.8 104.4s64 52.5 104.4 69.8c40.4 17.3 82.8 26 127.3 26s86.9-8.7 127.3-26c40.4-17.3 75.2-40.6 104.4-69.8s52.5-64 69.8-104.4c17.3-40.4 26-82.8 26-127.3s-8.7-87-26-127.3z" />
<glyph unicode="&#xe619;" glyph-name="uniE619" d="M982.9 647.1c-26.9 63.2-63.2 116.9-109 162.8-45.9 45.8-99.6 82.1-162.8 109s-129.6 41.1-199.1 41.1-135.9-12.6-199.1-41.1c-63.2-26.9-116.9-63.2-162.8-109-45.8-45.9-82.1-99.6-109-162.8s-41.1-129.6-41.1-199.1 14.2-135.9 41.1-199.1 63.2-116.9 109-162.8c45.8-45.8 99.6-82.2 162.8-109s129.6-41.1 199.1-41.1 135.9 14.2 199.1 41.1c63.2 26.9 116.9 63.2 162.8 109s82.2 99.6 109 162.8 41.1 129.6 41.1 199.1-14.2 135.9-41.1 199.1zM735.1 408.8c-19.6-34.9-45.3-66.2-77-93.7-1.1-0.8-4.4-3.6-9.9-8.2s-9.6-8.2-12.4-10.7c-2.8-2.5-7-6.4-12.6-11.6s-10.5-9.8-14.5-13.9c-4.1-4.1-8.7-9-13.9-14.9s-10-11.8-14.5-17.7c-37.3-48.8-60.1-86.8-68.2-114.1-8.1 27.2-30.9 65.2-68.2 114.1-4.5 5.9-9.3 11.8-14.5 17.7s-9.8 10.9-13.9 14.9c-4.1 4.1-8.9 8.7-14.5 13.9s-9.8 9-12.6 11.6c-2.8 2.5-6.9 6.1-12.4 10.7s-8.8 7.4-9.9 8.2c-31.7 27.5-57.4 58.7-77 93.7-19.6 34.9-29.5 72.3-29.5 112.2 0 45.7 11.3 88 33.9 126.7s53.2 69.4 92 92c38.7 22.6 81 33.9 126.7 33.9v0c45.7 0 88-11.3 126.7-33.9s69.4-53.2 92-92c22.6-38.7 33.9-81 33.9-126.7-0.2-39.9-10.1-77.3-29.7-112.2zM512 665.8c-39.8 0-73.9-14.2-102.3-42.5s-42.5-62.4-42.5-102.3 14.2-73.9 42.5-102.3 62.4-42.5 102.3-42.5c39.8 0 73.9 14.2 102.3 42.5 28.3 28.3 42.5 62.4 42.5 102.3 0 39.8-14.2 73.9-42.5 102.3-28.4 28.3-62.5 42.5-102.3 42.5z" />
<glyph unicode="&#xe900;" glyph-name="low-new" d="M512.3 406.1l-224.2 219.5-81-78.8 223-216.2 56.3-54 29.3-27.1 299.6 283.7-83.5 81.3-218.4-209.5z" />
<glyph unicode="&#xe901;" glyph-name="very-low-new" d="M512.3 252.1l-224.2 219.5-81-78.8 223-216.2 56.3-54 29.3-27.1 299.6 283.7-83.5 81.3-218.4-209.5zM510.3 562.1l-224.2 219.5-81-78.8 223-216.2 56.3-54 29.3-27.1 299.6 283.7-83.5 81.3-218.4-209.5z" />
<glyph unicode="&#xe902;" glyph-name="high-new" d="M454.8 803.6v-522.7h112.1v522.7zM454.8 206.2v-112h112.1v112z" />
<glyph unicode="&#xe903;" glyph-name="very-high-new" d="M593.8 804.6v-522.7h112.1v522.7zM593.8 207.2v-112h112.1v112zM319 802.7v-522.7h112.1l-0.1 522.7zM319 205.3v-112h112.1v112z" />
<glyph unicode="&#xe904;" glyph-name="status-pending" horiz-adv-x="875" d="M404.881 603.421v-284.511h240.74v65.656h-174.998v218.855h-65.742zM0 373.624c0-241.937 195.772-437.709 437.709-437.709s437.709 195.772 437.709 437.709c0 241.937-195.772 437.709-437.709 437.709s-437.709-195.772-437.709-437.709v0zM54.714 373.624c0 211.502 171.493 382.995 383.081 382.995 211.502 0 382.91-171.408 382.91-382.995s-171.408-382.995-382.91-382.995c-211.588 0-383.081 171.493-383.081 382.995v0zM470.366 756.619l0.171 170.553h-65.656v-170.553zM579.965 959.658l-284.511 0.342v-65.742h284.511zM780.695 765.425l-59.672-59.501 40.95-51.551 6.241 6.155 58.646 58.646z" />
<glyph unicode="&#xe905;" glyph-name="outbound" horiz-adv-x="963" d="M24.8-39.7c30.2-30.1 66.9-33.4 93.6-3.4l724.5 769.6v-278.5h120.3v512h-481.6v-120.1h264.5l-728-772.8c-26.7-26.8-23.3-73.5 6.7-106.8z" />
<glyph unicode="&#xe906;" glyph-name="inbound" horiz-adv-x="963" d="M938.4 935.7c-30.2 30.1-66.9 33.4-93.6 3.4l-724.5-769.6v278.5h-120.3v-512h481.6v120.1h-264.5l728 772.8c26.7 26.8 23.3 73.5-6.7 106.8z" />
<glyph unicode="&#xe907;" glyph-name="call-type" horiz-adv-x="963" d="M947.2 577.6c-19.4 19.3-42.9 21.4-60.1 2.2l-465-493.9v178.7h-77.1v-328.6h309.1v77.1h-169.8l467.2 496c17.2 17.1 15 47.1-4.3 68.5zM15.9 317c19.4-19.4 43-21.5 60.2-2.2l466 495v-179.1h77.4v329.3h-309.8v-77.3h170.1l-468.2-497c-17.2-17.3-15-47.3 4.3-68.7z" />
<glyph unicode="&#xe908;" glyph-name="black" d="M49.548-64h924.903c27.252 0 49.548 22.297 49.548 49.548v924.903c0 27.252-22.297 49.548-49.548 49.548h-924.903c-27.252 0-49.548-22.297-49.548-49.548v-924.903c0-27.252 22.297-49.548 49.548-49.548z" />
<glyph unicode="&#xe909;" glyph-name="symbols" d="M956.967-64c27.142 0 49.349 22.199 49.349 49.349v925.301c0 27.142-22.207 49.349-49.349 49.349h-296.096c-27.142 0-49.349-22.207-49.349-49.349v-925.301c0-27.15 22.207-49.349 49.349-49.349h296.096zM363.129-64c27.142 0 49.349 22.199 49.349 49.349v925.301c0 27.142-22.207 49.349-49.349 49.349h-296.096c-27.142 0-49.349-22.207-49.349-49.349v-925.301c0-27.15 22.207-49.349 49.349-49.349h296.096z" />
<glyph unicode="&#xe90a;" glyph-name="arrow" d="M937.186 491.177l-801.028 462.195c-32.896 18.915-74.017-4.934-74.017-42.765v-925.212c0-37.831 41.121-61.681 74.017-42.765l801.028 462.195c32.896 19.746 32.896 67.438 0 86.353z" />
</font>
</defs>
</svg>
